# Blender v2.67 (sub 0) OBJ File: ''
# www.blender.org
o Cylinder
v -0.031214 -1.299649 -0.559990
v -0.031214 0.700351 -0.559990
v 0.163877 -1.299649 -0.540775
v 0.163877 0.700351 -0.540775
v 0.351470 -1.299649 -0.483869
v 0.351470 0.700351 -0.483869
v 0.524356 -1.299649 -0.391459
v 0.524356 0.700351 -0.391459
v 0.675893 -1.299649 -0.267097
v 0.675893 0.700351 -0.267097
v 0.800256 -1.299649 -0.115560
v 0.800256 0.700351 -0.115560
v 0.892666 -1.299649 0.057327
v 0.892666 0.700351 0.057327
v 0.949571 -1.299649 0.244920
v 0.949571 0.700351 0.244920
v 0.968786 -1.299649 0.440010
v 0.968786 0.700351 0.440010
v 0.949572 -1.299649 0.635100
v 0.949572 0.700351 0.635100
v 0.892666 -1.299649 0.822693
v 0.892666 0.700351 0.822693
v 0.800256 -1.299649 0.995580
v 0.800256 0.700351 0.995580
v 0.675893 -1.299649 1.147117
v 0.675893 0.700351 1.147117
v 0.524356 -1.299649 1.271480
v 0.524356 0.700351 1.271480
v 0.351470 -1.299649 1.363890
v 0.351470 0.700351 1.363890
v 0.163876 -1.299649 1.420795
v 0.163876 0.700351 1.420795
v -0.031214 -1.299649 1.440010
v -0.031214 0.700351 1.440010
v -0.226304 -1.299649 1.420795
v -0.226304 0.700351 1.420795
v -0.413898 -1.299649 1.363889
v -0.413898 0.700351 1.363889
v -0.586784 -1.299649 1.271479
v -0.586784 0.700351 1.271479
v -0.738321 -1.299649 1.147116
v -0.738321 0.700351 1.147116
v -0.862684 -1.299649 0.995580
v -0.862684 0.700351 0.995580
v -0.955094 -1.299649 0.822693
v -0.955094 0.700351 0.822693
v -1.011999 -1.299649 0.635100
v -1.011999 0.700351 0.635100
v -1.031214 -1.299649 0.440009
v -1.031214 0.700351 0.440009
v -1.011999 -1.299649 0.244919
v -1.011999 0.700351 0.244919
v -0.955093 -1.299649 0.057326
v -0.955093 0.700351 0.057326
v -0.862683 -1.299649 -0.115561
v -0.862683 0.700351 -0.115561
v -0.738320 -1.299649 -0.267098
v -0.738320 0.700351 -0.267098
v -0.586783 -1.299649 -0.391460
v -0.586783 0.700351 -0.391460
v -0.413896 -1.299649 -0.483870
v -0.413896 0.700351 -0.483870
v -0.226303 -1.299649 -0.540775
v -0.226303 0.700351 -0.540775
vt -0.033569 -0.012207
vt 0.966431 -0.012207
vt 0.966431 0.987793
vt -0.033569 0.987793
vt 0.466431 0.987793
vt 0.563976 0.978186
vt 0.368886 0.978186
vt 0.657772 0.949733
vt 0.744216 0.903528
vt 0.819984 0.841346
vt 0.882165 0.765578
vt 0.928370 0.679135
vt 0.956823 0.585338
vt 0.966431 0.487793
vt 0.956823 0.390248
vt 0.928370 0.296451
vt 0.882165 0.210008
vt 0.819984 0.134240
vt 0.744216 0.072058
vt 0.657772 0.025853
vt 0.563976 -0.002600
vt 0.466431 -0.012207
vt 0.368885 -0.002600
vt 0.275089 0.025853
vt 0.188645 0.072058
vt 0.112877 0.134240
vt 0.050696 0.210008
vt 0.004491 0.296452
vt -0.023962 0.390248
vt -0.033569 0.487793
vt -0.023962 0.585339
vt 0.004491 0.679135
vt 0.050696 0.765579
vt 0.112878 0.841347
vt 0.188646 0.903528
vt 0.275090 0.949733
vn 0.098017 0.000000 -0.995185
vn 0.290285 0.000000 -0.956940
vn 0.471397 0.000000 -0.881921
vn 0.634393 0.000000 -0.773010
vn 0.773010 0.000000 -0.634393
vn 0.881921 0.000000 -0.471397
vn 0.956940 0.000000 -0.290285
vn 0.995185 0.000000 -0.098017
vn 0.995185 0.000000 0.098017
vn 0.956940 0.000000 0.290285
vn 0.881922 0.000000 0.471396
vn 0.773010 0.000000 0.634393
vn 0.634393 0.000000 0.773011
vn 0.471397 0.000000 0.881921
vn 0.290285 0.000000 0.956940
vn 0.098017 0.000000 0.995185
vn -0.098017 0.000000 0.995185
vn -0.290285 0.000000 0.956940
vn -0.471397 0.000000 0.881921
vn -0.634394 0.000000 0.773010
vn -0.773011 0.000000 0.634393
vn -0.881922 0.000000 0.471396
vn -0.956941 0.000000 0.290283
vn -0.995185 0.000000 0.098017
vn -0.995185 -0.000000 -0.098018
vn -0.956940 -0.000000 -0.290286
vn -0.881921 -0.000000 -0.471398
vn -0.773010 -0.000000 -0.634394
vn -0.634392 -0.000000 -0.773011
vn -0.471395 -0.000000 -0.881922
vn -0.000000 1.000000 0.000000
vn -0.098017 -0.000000 -0.995185
vn -0.290283 -0.000000 -0.956941
vn 0.000000 -1.000000 -0.000000
s off
f 1/1/1 2/2/1 4/3/1
f 3/1/2 4/2/2 6/3/2
f 5/1/3 6/2/3 8/3/3
f 7/1/4 8/2/4 10/3/4
f 9/1/5 10/2/5 12/3/5
f 11/1/6 12/2/6 14/3/6
f 13/1/7 14/2/7 16/3/7
f 15/1/8 16/2/8 18/3/8
f 17/1/9 18/2/9 20/3/9
f 19/1/10 20/2/10 22/3/10
f 21/1/11 22/2/11 24/3/11
f 23/1/12 24/2/12 26/3/12
f 25/1/13 26/2/13 28/3/13
f 27/1/14 28/2/14 30/3/14
f 29/1/15 30/2/15 32/3/15
f 31/1/16 32/2/16 34/3/16
f 33/1/17 34/2/17 35/4/17
f 35/1/18 36/2/18 37/4/18
f 37/1/19 38/2/19 39/4/19
f 39/1/20 40/2/20 41/4/20
f 41/1/21 42/2/21 43/4/21
f 43/1/22 44/2/22 45/4/22
f 45/1/23 46/2/23 47/4/23
f 47/1/24 48/2/24 49/4/24
f 49/1/25 50/2/25 51/4/25
f 51/1/26 52/2/26 53/4/26
f 53/1/27 54/2/27 55/4/27
f 55/1/28 56/2/28 57/4/28
f 57/1/29 58/2/29 59/4/29
f 59/1/30 60/2/30 61/4/30
f 4/5/31 2/6/31 6/7/31
f 63/1/32 64/2/32 1/4/32
f 61/1/33 62/2/33 63/4/33
f 1/5/34 3/6/34 63/7/34
f 3/4/1 1/1/1 4/3/1
f 5/4/2 3/1/2 6/3/2
f 7/4/3 5/1/3 8/3/3
f 9/4/4 7/1/4 10/3/4
f 11/4/5 9/1/5 12/3/5
f 13/4/6 11/1/6 14/3/6
f 15/4/7 13/1/7 16/3/7
f 17/4/8 15/1/8 18/3/8
f 19/4/9 17/1/9 20/3/9
f 21/4/10 19/1/10 22/3/10
f 23/4/11 21/1/11 24/3/11
f 25/4/12 23/1/12 26/3/12
f 27/4/13 25/1/13 28/3/13
f 29/4/14 27/1/14 30/3/14
f 31/4/15 29/1/15 32/3/15
f 33/4/16 31/1/16 34/3/16
f 34/2/17 36/3/17 35/4/17
f 36/2/18 38/3/18 37/4/18
f 38/2/19 40/3/19 39/4/19
f 40/2/20 42/3/20 41/4/20
f 42/2/21 44/3/21 43/4/21
f 44/2/22 46/3/22 45/4/22
f 46/2/23 48/3/23 47/4/23
f 48/2/24 50/3/24 49/4/24
f 50/2/25 52/3/25 51/4/25
f 52/2/26 54/3/26 53/4/26
f 54/2/27 56/3/27 55/4/27
f 56/2/28 58/3/28 57/4/28
f 58/2/29 60/3/29 59/4/29
f 60/2/30 62/3/30 61/4/30
f 2/6/31 64/8/31 6/7/31
f 64/8/31 62/9/31 6/7/31
f 62/9/31 60/10/31 6/7/31
f 60/10/31 58/11/31 6/7/31
f 58/11/31 56/12/31 6/7/31
f 56/12/31 54/13/31 6/7/31
f 54/13/31 52/14/31 6/7/31
f 52/14/31 50/15/31 6/7/31
f 50/15/31 48/16/31 6/7/31
f 48/16/31 46/17/31 6/7/31
f 46/17/31 44/18/31 6/7/31
f 44/18/31 42/19/31 6/7/31
f 42/19/31 40/20/31 6/7/31
f 40/20/31 38/21/31 6/7/31
f 38/21/31 36/22/31 6/7/31
f 36/22/31 34/23/31 6/7/31
f 34/23/31 32/24/31 6/7/31
f 32/24/31 30/25/31 6/7/31
f 30/25/31 28/26/31 6/7/31
f 28/26/31 26/27/31 6/7/31
f 26/27/31 24/28/31 6/7/31
f 24/28/31 22/29/31 6/7/31
f 22/29/31 20/30/31 6/7/31
f 20/30/31 18/31/31 6/7/31
f 18/31/31 16/32/31 6/7/31
f 16/32/31 14/33/31 6/7/31
f 14/33/31 12/34/31 6/7/31
f 12/34/31 10/35/31 8/36/31
f 6/7/31 12/34/31 8/36/31
f 64/2/32 2/3/32 1/4/32
f 62/2/33 64/3/33 63/4/33
f 3/6/34 5/8/34 63/7/34
f 5/8/34 7/9/34 63/7/34
f 7/9/34 9/10/34 63/7/34
f 9/10/34 11/11/34 63/7/34
f 11/11/34 13/12/34 63/7/34
f 13/12/34 15/13/34 63/7/34
f 15/13/34 17/14/34 63/7/34
f 17/14/34 19/15/34 63/7/34
f 19/15/34 21/16/34 63/7/34
f 21/16/34 23/17/34 63/7/34
f 23/17/34 25/18/34 63/7/34
f 25/18/34 27/19/34 63/7/34
f 27/19/34 29/20/34 63/7/34
f 29/20/34 31/21/34 63/7/34
f 31/21/34 33/22/34 63/7/34
f 33/22/34 35/23/34 63/7/34
f 35/23/34 37/24/34 63/7/34
f 37/24/34 39/25/34 63/7/34
f 39/25/34 41/26/34 63/7/34
f 41/26/34 43/27/34 63/7/34
f 43/27/34 45/28/34 63/7/34
f 45/28/34 47/29/34 63/7/34
f 47/29/34 49/30/34 63/7/34
f 49/30/34 51/31/34 63/7/34
f 51/31/34 53/32/34 63/7/34
f 53/32/34 55/33/34 63/7/34
f 55/33/34 57/34/34 63/7/34
f 57/34/34 59/35/34 61/36/34
f 63/7/34 57/34/34 61/36/34
